<svg width="45" height="45" viewBox="0 0 45 45" fill="none" xmlns="http://www.w3.org/2000/svg">
<path d="M44.3691 3.99524L41.2606 0.923679C40.4194 0.082558 39.0298 0.082558 38.1521 0.923679L22.6462 16.4292L6.8481 0.631115C6.00661 -0.210372 4.61693 -0.210372 3.73961 0.631115L0.631115 3.73961C-0.210372 4.58073 -0.210372 5.97041 0.631115 6.8481L16.393 22.61L0.923679 38.1524C0.082558 38.9936 0.082558 40.3832 0.923679 41.2609L4.03217 44.3694C4.87329 45.2106 6.26297 45.2106 7.14066 44.3694L22.6462 28.8635L38.1521 44.3694C38.9932 45.2106 40.3829 45.2106 41.2606 44.3694L44.3691 41.2609C45.2102 40.4198 45.2102 39.0301 44.3691 38.1524L28.8266 22.6466L44.3325 7.14103C45.2102 6.26261 45.2102 4.87293 44.3691 3.99524Z" fill="white"/>
</svg>
